<svg width="414" height="414" viewBox="0 0 414 414" fill="none" xmlns="http://www.w3.org/2000/svg">
<rect width="414" height="414" rx="47" fill="#145757"/>
<path d="M269.5 218.183L259 280.5C252.49 283.245 246.231 288.102 230.608 287.278L214.163 303.75C212.45 305.466 208.201 307.971 204.912 304.265C201.793 300.75 204.282 296.957 206.155 295.258C204.098 296.947 199.57 299.038 195.662 295.514C194.634 294.313 193.092 291.087 195.148 287.793C195.593 287.079 196.514 286.013 197.742 284.731C195.454 287.028 190.484 290.091 186.925 285.734C183.755 281.853 185.891 277.946 187.969 275.828C185.559 277.768 181.377 279.822 178.188 276.983C174.488 273.689 176.304 269.09 177.674 267.203L210.5 236.832L218.5 242.683L228.5 248.183C232.122 249.183 235.645 248.775 239.345 245.068C243.045 241.362 243.699 236.571 242.5 234.683L233.5 224.683C232.472 223.654 229.066 219.654 231.122 217.183C233.178 214.713 237.632 216.639 239.345 218.183L257 234.683C262.996 232.624 263.333 231.361 269.5 218.183Z" fill="white"/>
<path d="M124.411 355H77.3985H74L106.5 199.5C108.766 239.854 133.049 256.76 144 266.017L124.411 355Z" fill="white"/>
<path d="M290.938 181.569L258.086 355H307.364L336.818 204.24C343.162 167.06 334.175 132.827 328.888 120.358C289.919 44.1842 213.339 53.4792 179.92 67.6485C119.2 100.294 109.684 157.198 112.516 181.569C111.157 219.656 145.558 253.737 162.928 266.017L207.108 224.077L222.402 236.545C224.29 238.812 229.085 242.326 233.164 238.246C237.242 234.165 233.73 229.744 231.464 228.044L208.808 209.341C202.464 203.446 194.836 204.995 191.815 206.507L175.389 212.174C158.17 192.678 159.907 167.022 162.928 156.631C172.897 116.731 206.731 106.755 222.402 106.755C285.387 109.023 294.337 157.576 290.938 181.569Z" fill="white"/>
</svg>
